<!DOCTYPE svg PUBLIC "-//W3C//DTD SVG 1.1//EN" "http://www.w3.org/Graphics/SVG/1.1/DTD/svg11.dtd">
<!-- Uploaded to: SVG Repo, www.svgrepo.com, Transformed by: SVG Repo Mixer Tools -->
<svg version="1.1" id="Layer_1" xmlns="http://www.w3.org/2000/svg" xmlns:xlink="http://www.w3.org/1999/xlink" viewBox="0 0 512 512" xml:space="preserve" width="800px" height="800px" fill="#000000" transform="rotate(0)">
<g id="SVGRepo_bgCarrier" stroke-width="0"/>
<g id="SVGRepo_tracerCarrier" stroke-linecap="round" stroke-linejoin="round"/>
<g id="SVGRepo_iconCarrier"> <path style="fill:#E6E6E6;" d="M128.691,423.211c15.652,16.759,15.307,43.041-1.036,59.384c-16.712,16.7-43.791,16.7-60.491,0 c-9.13-9.13-13.26-21.366-12.403-33.292c-11.951,0.845-24.175-3.285-33.304-12.415c-16.712-16.7-16.712-43.791,0-60.491 c16.343-16.343,42.624-16.688,59.396-1.036l17.009-17.021l27.032-27.031l47.85,47.85L128.691,423.211z"/> <g> <path style="fill:#9AD14B;" d="M503.073,121.317c0.012,6.749-2.559,13.474-7.713,18.628L385.472,249.833l-0.012,0.012 l-37.268-37.268l16.176-16.164l93.723-93.735c10.296-10.284,26.972-10.284,37.268,0.012 C500.502,107.831,503.085,114.568,503.073,121.317z"/> <path style="fill:#9AD14B;" d="M319.72,129.257c10.296,10.284,10.296,26.972,0,37.268l-36.328,36.328 c-5.154,5.154-11.891,7.725-18.64,7.725c-6.749,0-13.486-2.571-18.628-7.725c-10.296-10.284-10.296-26.972,0-37.256l36.34-36.34 c5.142-5.142,11.891-7.725,18.628-7.725S314.578,124.115,319.72,129.257z"/> <path style="fill:#9AD14B;" d="M283.393,202.852l36.328-36.328l7.38-7.38c5.142-5.142,11.891-7.725,18.628-7.713 c6.749-0.012,13.498,2.571,18.64,7.713c10.284,10.296,10.284,26.972,0,37.268l-16.176,16.164l37.268,37.268l14.379,14.379 c7.701,7.701,7.701,20.199,0,27.9l-43.196,43.196c-18.354,18.354-44.469,26.698-70.084,22.377 c-2.845-0.476-5.702-0.714-8.534-0.714c-13.486,0-26.555,5.321-36.256,15.021l-38.089,38.089l-30.936-30.936l-47.85-47.85 l-33.507-33.507l32.995-33.007c8.761-8.749,15.39-19.39,19.354-31.114c7.844-23.175,23.413-63.645,41.898-82.13l25.448-25.448 L312.567,24.618c10.284-10.284,26.972-10.284,37.256,0c5.142,5.154,7.725,11.891,7.725,18.64s-2.583,13.486-7.725,18.628 l-67.359,67.37l-36.34,36.34c-10.296,10.284-10.296,26.972,0,37.256c5.142,5.154,11.879,7.725,18.628,7.725 C271.502,210.577,278.239,208.006,283.393,202.852z"/> </g> <g> <path style="fill:#90BC42;" d="M246.125,202.852c-10.296-10.284-10.296-26.972,0-37.256l-17.259,17.259 c-10.296,10.284-10.296,26.972,0,37.256c5.142,5.154,11.879,7.725,18.628,7.725s13.486-2.571,18.64-7.725l17.259-17.259 c-5.154,5.154-11.891,7.725-18.64,7.725C258.004,210.577,251.267,208.006,246.125,202.852z"/> <path style="fill:#90BC42;" d="M282.701,239.429c-10.296-10.284-10.296-26.972,0-37.256l-17.259,17.259 c-10.296,10.284-10.296,26.972,0,37.256c5.142,5.154,11.879,7.725,18.628,7.725c6.749,0,13.486-2.571,18.64-7.725l17.259-17.259 c-5.154,5.154-11.891,7.725-18.64,7.725S287.843,244.583,282.701,239.429z"/> <path style="fill:#90BC42;" d="M333.992,42.473L232.508,143.957l-25.448,25.448c-18.485,18.485-34.054,58.955-41.898,82.13 c-3.964,11.724-10.594,22.366-19.354,31.114l-32.995,33.007l-21.425-17.854l32.995-33.007c8.761-8.749,15.39-19.39,19.354-31.114 c7.844-23.175,23.413-63.645,41.898-82.13l25.448-25.448L312.567,24.618c10.284-10.284,26.972-10.284,37.256,0 c3.011,3.023,5.154,6.594,6.392,10.391C348.335,33.926,340.051,36.414,333.992,42.473z"/> </g> <rect x="116.175" y="334.918" transform="matrix(-0.7071 0.7071 -0.7071 -0.7071 491.7038 533.8334)" style="fill:#CCCCCC;" width="38.232" height="67.669"/> <path style="fill:#333333;" d="M512,121.323c0.01-9.421-3.657-18.283-10.327-24.951c-13.756-13.755-36.134-13.76-49.89-0.006 L379.73,168.42c-1.562-5.711-4.571-11.105-9.049-15.583c-6.664-6.664-15.513-10.333-24.908-10.333c-0.021,0-0.044,0-0.065,0 c-3.285,0-6.499,0.457-9.579,1.322c-0.899-7.886-4.398-15.187-10.094-20.882c-4.391-4.391-9.739-7.473-15.57-9.07L356.139,68.2 c6.663-6.663,10.333-15.523,10.333-24.945c0-9.424-3.67-18.282-10.333-24.945c-6.664-6.663-15.523-10.333-24.946-10.333 c-9.422,0-18.28,3.67-24.945,10.333L179.314,145.242c-18.843,18.845-34.348,56.94-44.038,85.58 c-3.498,10.34-9.449,19.905-17.203,27.662L85.07,291.487c-1.674,1.675-2.614,3.945-2.614,6.312s0.94,4.639,2.614,6.312 l27.199,27.199L80.13,363.45c-20.166-13.381-47.274-11.073-64.983,6.636C5.38,379.849,0,392.832,0,406.644 s5.38,26.795,15.145,36.555c8.375,8.375,19.287,13.546,30.887,14.823c1.276,11.598,6.448,22.512,14.822,30.887 c10.077,10.077,23.312,15.116,36.551,15.114c13.237-0.001,26.48-5.038,36.561-15.114c17.71-17.712,20.017-44.818,6.637-64.984 l32.139-32.139l24.621,24.621c1.675,1.675,3.945,2.615,6.313,2.615s4.637-0.94,6.313-2.615l38.087-38.087 c9.676-9.676,23.514-14.093,37-11.817c28.4,4.791,57.516-4.506,77.883-24.872l43.194-43.194c11.172-11.173,11.172-29.353,0-40.526 l-8.067-8.067l103.587-103.587C508.343,139.587,512.01,130.725,512,121.323z M345.726,160.357c0.012,0,0.024,0,0.032,0 c4.64,0,9.007,1.812,12.298,5.103c6.789,6.789,6.789,17.838,0,24.633l-9.917,9.917c-3.022-2.489-6.779-3.843-10.746-3.843 c-4.525,0-8.778,1.762-11.977,4.961c-10.003,10.002-15.78,23.104-16.437,37.139c-0.594,0.094-1.188,0.249-1.772,0.47 c-1.943,0.734-4.002,1.108-6.122,1.108c-4.656,0-9.031-1.81-12.317-5.097c-6.795-6.795-6.798-17.848-0.006-24.64l44.647-44.647 C336.702,162.169,341.069,160.357,345.726,160.357z M301.092,130.465c4.654,0,9.028,1.812,12.321,5.104 c3.291,3.291,5.103,7.665,5.103,12.32s-1.812,9.03-5.103,12.32c-0.001,0-0.001,0-0.001,0l-36.335,36.336 c-6.791,6.793-17.846,6.794-24.639,0c-3.292-3.291-5.104-7.667-5.104-12.321s1.812-9.03,5.104-12.321l36.34-36.34 C292.066,132.276,296.44,130.465,301.092,130.465z M122.382,416.894c-3.401,3.401-3.496,8.885-0.214,12.403 c12.493,13.39,12.129,34.029-0.826,46.986c-13.2,13.192-34.672,13.193-47.863,0.001c-6.939-6.938-10.517-16.544-9.818-26.352 c0.035-0.49,0.017-0.977-0.029-1.459c0.499-4.399,1.858-8.718,3.982-12.568c2.382-4.317,0.814-9.747-3.502-12.129 c-4.317-2.383-9.746-0.814-12.129,3.503c-2.22,4.022-3.895,8.376-4.978,12.872c-7.227-1.009-13.993-4.33-19.237-9.575 c-6.393-6.392-9.914-14.889-9.914-23.931s3.521-17.539,9.916-23.931c12.933-12.934,33.519-13.319,46.912-0.896l10.73,10.73 c1.744,1.744,4.028,2.615,6.313,2.615c2.284,0,4.57-0.871,6.312-2.615c3.488-3.486,3.488-9.138,0.001-12.625l-4.566-4.566 l31.421-31.421l35.223,35.223L122.382,416.894z M393.528,285.811l-43.194,43.194c-16.289,16.288-39.576,23.722-62.286,19.892 c-19.177-3.236-38.842,3.042-52.597,16.797l-31.774,31.775l-99.67-99.669l26.693-26.692c9.685-9.685,17.116-21.637,21.491-34.564 c17.316-51.185,32.338-71.264,39.751-78.677L318.875,30.935c6.794-6.794,17.847-6.793,24.639,0c3.292,3.291,5.104,7.665,5.104,12.32 s-1.812,9.03-5.104,12.321L239.81,159.279c-6.663,6.663-10.333,15.523-10.333,24.945c0,9.424,3.67,18.282,10.333,24.945 c6.878,6.878,15.912,10.316,24.945,10.316c0.401,0,0.801-0.015,1.202-0.029c-0.836,9.996,2.554,20.283,10.188,27.915 c0.896,0.896,1.835,1.733,2.807,2.52c-8.864,2.522-17.226,7.256-24.191,14.222l-2.283,2.283c-3.486,3.486-3.486,9.139,0.001,12.625 c1.744,1.743,4.028,2.614,6.312,2.614c2.285,0,4.571-0.871,6.313-2.615l2.283-2.283c14.88-14.88,39.089-14.877,53.967,0 c0.233,0.233,21.66,21.661,21.66,21.661c3.488,3.485,9.14,3.486,12.624,0c3.488-3.486,3.488-9.139,0.001-12.625l-17.597-17.597 c-7.268-7.268-11.272-16.932-11.272-27.211c0-9.972,3.768-19.366,10.632-26.555l56.127,56.126 C397.739,274.746,397.739,281.598,393.528,285.811z M489.049,133.63L385.461,237.217l-24.639-24.639l9.854-9.854 c0.002-0.002,0.005-0.006,0.008-0.008l93.725-93.726c6.792-6.792,17.847-6.787,24.639,0.006c3.292,3.291,5.102,7.663,5.097,12.327 C494.15,125.968,492.341,130.339,489.049,133.63z"/> </g>
</svg>